<?xml version="1.0" ?><svg viewBox="0 0 64 64" xmlns="http://www.w3.org/2000/svg"><g id="Brainstorm"><path d="M62.0532,12.0428l-2.3457-.44a1.2761,1.2761,0,0,1-.9729-.82,9.1433,9.1433,0,0,0-.3682-.8918,1.2753,1.2753,0,0,1,.1087-1.266L59.822,6.6562a.83.83,0,0,0-.0981-1.0553L58.2927,4.17a.83.83,0,0,0-1.0554-.0981l-1.969,1.3469a1.2748,1.2748,0,0,1-1.2659.1086,9.1946,9.1946,0,0,0-.8918-.3684,1.2746,1.2746,0,0,1-.82-.9726l-.44-2.346a.83.83,0,0,0-.8155-.6767H49.0107a.83.83,0,0,0-.8154.6767l-.44,2.3459a1.2748,1.2748,0,0,1-.82.9727,9.17,9.17,0,0,0-.8916.3684,1.275,1.275,0,0,1-1.2661-.1087l-1.969-1.3468a.83.83,0,0,0-1.0552.098L40.322,5.6009a.8294.8294,0,0,0-.0981,1.0553l1.3469,1.9689a1.2753,1.2753,0,0,1,.1086,1.266,9.1426,9.1426,0,0,0-.3681.8918,1.2762,1.2762,0,0,1-.9729.82l-2.3457.44a.83.83,0,0,0-.6768.8155v2.0243a.83.83,0,0,0,.6768.8156l2.3457.44a1.276,1.276,0,0,1,.9729.82,9.1306,9.1306,0,0,0,.3681.8917,1.2755,1.2755,0,0,1-.1086,1.2661l-1.3469,1.969A.8293.8293,0,0,0,40.322,22.14l1.4314,1.4314a.83.83,0,0,0,1.0552.0981l1.969-1.3469a1.275,1.275,0,0,1,1.2661-.1086,9.194,9.194,0,0,0,.8916.3682,1.2754,1.2754,0,0,1,.82.9728l.44,2.3457a.83.83,0,0,0,.8154.6768h2.0244a.83.83,0,0,0,.8155-.6768l.44-2.3457a1.2753,1.2753,0,0,1,.82-.9729,9.1683,9.1683,0,0,0,.8916-.3681,1.275,1.275,0,0,1,1.2661.1086l1.969,1.3469a.83.83,0,0,0,1.0554-.0981L59.7239,22.14a.8294.8294,0,0,0,.0981-1.0552l-1.3469-1.969a1.2753,1.2753,0,0,1-.1087-1.266,9.1415,9.1415,0,0,0,.3682-.8917,1.2759,1.2759,0,0,1,.9729-.82l2.3457-.44a.83.83,0,0,0,.677-.8156V12.8583A.83.83,0,0,0,62.0532,12.0428ZM50.0229,18.58a4.71,4.71,0,1,1,4.71-4.71A4.71,4.71,0,0,1,50.0229,18.58Z"/><path d="M57.7056,26.3145a3.3147,3.3147,0,0,1-1.88-.5815l-1.241-.8488-.2771,1.4767a3.3309,3.3309,0,0,1-3.2727,2.7167H49.0107a3.3306,3.3306,0,0,1-3.2724-2.7157l-.2774-1.4777L44.22,25.733a3.33,3.33,0,0,1-4.2346-.3937l-1.4309-1.431a3.3309,3.3309,0,0,1-.3943-4.2351l.8489-1.2406-1.4773-.2773a3.3313,3.3313,0,0,1-2.7161-3.2727V12.8742a12.394,12.394,0,0,0-3.9324,2.4768,8.1228,8.1228,0,0,0-6.5107.8394,8.8914,8.8914,0,0,0-3.6543,4.8628,8.937,8.937,0,0,0-3.5264-.7261,8.5363,8.5363,0,0,0-6.9492,3.312,7.8318,7.8318,0,0,0-1.4385,4.8586,9.1321,9.1321,0,0,1,3.5713,1.4241,1.4218,1.4218,0,0,1,.1455.1133,7.2581,7.2581,0,0,0,9.6358-.1621,1.35,1.35,0,0,1,1.7422,2.0625,10.0755,10.0755,0,0,1-6.5967,2.584,10.2781,10.2781,0,0,1-6.5078-2.4068,6.4517,6.4517,0,0,0-3.44-1.0529,7.8733,7.8733,0,0,0-5.3994,5.4235,10.2289,10.2289,0,0,0-.3223,2.586A8.8528,8.8528,0,0,0,9.529,47.86a7.6938,7.6938,0,0,0,11.7769,5.5426,7.9141,7.9141,0,0,1-.8608-5.9957,1.35,1.35,0,1,1,2.6035.7158,5.5305,5.5305,0,0,0,1.3032,4.9724A10.1,10.1,0,0,0,31.155,55.71h3.7022a2.1218,2.1218,0,0,1,1.8047,1.02l3.1738,5.1519a2.1031,2.1031,0,0,0,1.8017,1.0049h.0049l4.1367-.0127a2.1151,2.1151,0,0,0,1.9131-3.002l-1.5605-3.377a1.6821,1.6821,0,0,1,1.541-2.354h.5244A10.8577,10.8577,0,0,0,59.12,44.3583a10.7154,10.7154,0,0,0-1.0191-5.4621,7.8378,7.8378,0,0,0-2.3452-1.115,6.088,6.088,0,0,0-4.915.5c-1.6358,1.022-2.3262,2.6792-2.1123,5.0659a1.3506,1.3506,0,0,1-1.2247,1.4654c-.041.0034-.081.0053-.122.0053a1.35,1.35,0,0,1-1.3428-1.23c-.3848-4.2968,1.62-6.5029,3.37-7.5966a8.771,8.771,0,0,1,7.1026-.8018,10.7357,10.7357,0,0,1,2.29.9623,9.9356,9.9356,0,0,0,.9561-4.2157A13.6906,13.6906,0,0,0,58.595,26.18,3.3241,3.3241,0,0,1,57.7056,26.3145Z"/></g></svg>