<?xml version="1.0" encoding="iso-8859-1"?>
<!-- Generator: Adobe Illustrator 19.2.1, SVG Export Plug-In . SVG Version: 6.00 Build 0)  -->
<svg version="1.1" xmlns="http://www.w3.org/2000/svg" xmlns:xlink="http://www.w3.org/1999/xlink" x="0px" y="0px"
	 viewBox="0 0 1059.972 1018.364" style="enable-background:new 0 0 1059.972 1018.364;" xml:space="preserve">
<g id="Colored_Flowers">
	<g>
		<path style="fill:#F5E283;" d="M964.074,540.637c0,453.605-595.774,652.613-868.85,290.5
			c-260.001-344.775,50.417-842.835,473.18-765.608C794.746,106.876,964.074,310.644,964.074,540.637z"/>
		<path style="fill:#768C19;" d="M276.784,513.688c-10.143-66.617-5.029-135.511,14.838-199.9
			c6.601-21.392,15.452-43.226,32.564-57.662c1.31-1.105,2.953-2.227,4.605-1.767c1.188,0.331,2.005,1.398,2.666,2.44
			c4.188,6.599,5.631,14.523,6.851,22.243c4.406,27.868,7.015,56.019,7.806,84.222c0.373,13.32,0.324,26.806-2.833,39.752
			c-3.342,13.703-10.041,26.315-16.677,38.761c-8.066,15.13-16.133,30.26-24.199,45.39c-6.74,12.642-14.505,26.232-27.817,31.528"/>
		<path style="fill:#95C11F;" d="M344.008,676.149c-6.006-13.518-172.33-415.518-172.33-415.518l17.275-8l169,423.518H344.008z"/>
		<path style="fill:#768C19;" d="M328.451,664.438c-10.143-66.617-5.029-135.511,14.838-199.9
			c6.601-21.392,15.452-43.226,32.564-57.662c1.31-1.105,2.953-2.227,4.605-1.767c1.188,0.331,2.005,1.398,2.666,2.44
			c4.188,6.599,5.631,14.523,6.851,22.243c4.406,27.868,7.015,56.019,7.806,84.222c0.373,13.32,0.324,26.806-2.833,39.752
			c-3.342,13.703-10.041,26.315-16.677,38.761c-8.066,15.13-16.133,30.26-24.199,45.39c-6.74,12.642-14.505,26.232-27.817,31.528"/>
		<path style="fill:#768C19;" d="M526.07,597.218c5.845-31.936,12.925-63.631,20.004-95.317
			c5.308-23.763,10.67-47.691,20.347-70.034c13.713-31.662,35.572-58.988,57.173-85.894c1.275-1.588,2.649-3.248,4.566-3.931
			c4.171-1.486,8.314,2.28,10.686,6.019c8.451,13.323,9.358,29.909,10.018,45.673c0.977,23.318,1.919,47.008-3.65,69.672
			c-7.577,30.835-26.628,57.497-46.717,82.086c-18.32,22.424-39.488,44.892-67.465,52.358"/>
		<path style="fill:#86A81D;" d="M430.974,602.888c-13.961-0.487-26.648-8.207-37.441-17.076
			c-34.312-28.198-56.273-70.923-59.233-115.236c11.786-5.434,25.715-0.589,36.967,5.879c44.65,25.666,72.138,78.471,67.548,129.768
			"/>
		<path style="fill:#95C11F;" d="M448.47,686.167c-3.079-14.468-82.608-442.186-82.608-442.186l18.557-4.252l77.694,449.324
			L448.47,686.167z"/>
		<path style="fill:#95C11F;" d="M517.471,737.051c0.004-14.792,11.349-449.693,11.349-449.693l19.035-0.292l-17.642,455.65
			L517.471,737.051z"/>
		<path style="fill:#768C19;" d="M782.418,520.666c-10.884-30.588-20.578-61.584-30.268-92.57
			c-7.268-23.239-14.572-46.647-17.345-70.838c-3.93-34.279,1.361-68.87,6.64-102.968c0.311-2.012,0.673-4.137,1.993-5.686
			c2.872-3.37,8.342-2.177,12.264-0.122c13.975,7.322,23.043,21.239,31.488,34.567c12.491,19.715,25.137,39.768,31.63,62.186
			c8.834,30.499,5.643,63.111,0.517,94.447c-4.674,28.576-11.794,58.613-32.304,79.053"/>
		<path style="fill:#95C11F;" d="M628.578,663.57c1.972-14.66,71.076-444.186,71.076-444.186l18.905,2.244L640.453,670.88
			L628.578,663.57z"/>
		<path style="fill:#95C11F;" d="M734.903,651.459c4.844-16.849,160.258-508.123,160.258-508.123l22.132,6.642L747.801,662.581
			L734.903,651.459z"/>
		<path style="fill:#F28705;" d="M877.365,165.745c-27.458-18.378-41.105-44.338-49.376-76.327
			c-3.74-14.466-4.273-31.892,6.586-42.156c12.126-11.461,33.066-7.54,45.233,3.877s17.756,28.004,22.902,43.876
			c-1.228-31.774,12.782-63.799,36.951-84.463c11.491-9.825,31.253-16.03,39.985-3.688c2.639,3.73,3.517,8.4,4.105,12.932
			c3.36,25.9-0.745,52.725-11.697,76.435c9.804-11.967,21.278-23.265,35.738-28.763c14.461-5.498,32.465-3.957,43.237,7.147
			c14.758,15.212,9.878,41.939-4.658,57.364c-14.536,15.424-35.673,22.385-55.881,28.777c-13.76,4.353-27.521,8.705-41.281,13.058
			c-12.355,3.908-24.969,7.857-37.926,7.704C898.326,181.363,884.729,176.408,877.365,165.745"/>
		<path style="fill:#A66226;" d="M225.449,718.283c-1.441,7.87,26.296,184.792,35.682,188.376
			c9.386,3.584,510.459,1.535,510.459,1.535l37.957-228.874L225.449,718.283z"/>
		<polygon style="fill:#D9A362;" points="177.186,742.716 148.8,650.834 853.564,609.583 838.512,700.343 		"/>
		<path style="fill:#F4164F;" d="M168.143,318.552C94.062,311.711,32.468,244.4,19.365,171.167
			c-1.742-9.736-2.255-20.912,4.316-28.305c8.183-9.206,22.985-7.806,34.531-3.516c19.429,7.219,36.532,20.56,48.265,37.647
			c-13.523-24.636-20.994-52.566-21.579-80.663c-0.261-12.548,0.989-25.634,7.456-36.39s19.314-18.478,31.542-15.651
			c10.442,2.414,17.889,11.504,23.613,20.565c18.283,28.944,27.432,63.565,25.836,97.762c-2.43-35.168,17.395-70.903,48.518-87.456
			c7.331-3.899,15.574-6.847,23.813-5.815c21.263,2.665,30.403,28.322,32.456,49.654c5.719,59.443-8.577,120.635-40.04,171.392
			c-8.123,13.104-17.958,26.036-31.957,32.495c-13.999,6.459-33.039,4.245-41.594-8.581"/>
		<path style="fill:#FFFFFF;" d="M530.307,374.401c-11.966,1.541-23.341-5.541-32.288-13.635
			c-19.665-17.789-33.308-42.121-38.228-68.179c-1.451-7.685-0.722-17.91,6.727-20.292c7.15-2.286,13.536,4.859,17.666,11.127
			c3.411,5.177,6.822,10.354,10.232,15.532c-3.811-17.888-7.195-38.137,3.236-53.16c8.383-12.074,25.263-17.433,39.076-12.406
			c13.813,5.027,23.299,19.982,21.96,34.62c5.942-12.993,16.898-23.461,29.811-29.576c13.915-6.589,32.246-7.495,43.218,3.306
			c6.698,6.594,9.416,16.422,9.242,25.819c-0.505,27.224-21.863,48.922-41.775,67.494c-22.247,20.749-42.211,39.832-72.631,39.553"
			/>
		<path style="fill:#F28705;" d="M389.214,350.493c-23.635,0.761-46.187-11.533-62.938-28.225
			c-16.75-16.692-28.611-37.549-40.262-58.127c-3.805-6.721-7.736-14.478-5.351-21.824c2.688-8.28,12.753-12.252,21.359-10.94
			s16.029,6.559,23.022,11.742c-0.97-22.798-1.649-46.915,9.359-66.903s38.234-32.889,57.441-20.567
			c15.17,9.732,19.032,29.869,21.054,47.779c18.383-5.419,36.205-21.563,54.015-14.483c10.212,4.06,16.316,15.182,17.2,26.136
			s-2.582,21.785-6.777,31.943C458.604,292.376,432.303,327.022,389.214,350.493"/>
		<path style="fill:#F4164F;" d="M693.642,272.306c-39.364-10.478-65.819-53.168-67.617-93.863
			c-0.437-9.892,1.78-21.563,10.692-25.878c8.08-3.912,17.973,0.362,24.303,6.727c6.329,6.366,10.447,14.607,16.422,21.306
			c-2.475-18.179-1.448-36.828,3.007-54.625c2.499-9.983,8.419-21.512,18.709-21.652c8.915-0.122,15.209,8.592,18.855,16.728
			c7.73,17.251,11.003,36.478,9.415,55.315c5.864-19.021,15.514-40.781,35.059-44.545c16.811-3.238,33.655,10.12,38.703,26.479
			s0.557,34.316-7.278,49.538C774.865,244.837,735.209,270.334,693.642,272.306"/>
		<path style="fill:#95C11F;" d="M299.548,572.413c-22.452,7.729-47.333,6.082-70.08-0.729s-43.696-18.519-63.972-30.877
			c-31.01-18.899-61.151-39.698-86.764-65.441c-25.614-25.743-46.65-56.752-56.881-91.595c43.756-1.9,87.332,10.37,126.415,30.136
			s74.033,46.829,106.907,75.769c13.097,11.53,26.052,23.552,35.561,38.182c9.51,14.63,15.373,32.296,12.903,49.569"/>
		<path style="fill:#95C11F;" d="M521.265,584.023c-37.598-19.767-69.252-50.671-89.914-87.785s-30.257-80.299-27.254-122.67
			c12.627-0.436,24.903,5.051,34.814,12.888c9.911,7.837,17.771,17.923,25.332,28.046c35.676,47.766,68.084,102.321,68.235,161.939
			c0.01,3.974-0.269,8.324-2.956,11.253c-2.687,2.928-8.601,2.85-9.816-0.934"/>
		<path style="fill:#95C11F;" d="M671.901,431.728c6.387-32.512,23.13-62.908,47.194-85.683s55.336-37.82,88.149-42.409
			c0.667,33.734-20.731,64.581-47.302,85.374s-58.265,33.723-88.253,49.184"/>
		<path style="fill:#95C11F;" d="M778.899,530.539c28.971-59.65,79.644-108.464,140.333-135.187
			c1.708-0.752,3.658-1.494,5.384-0.784c2.254,0.927,2.906,3.756,3.208,6.174c2.945,23.547,1.31,48.908-11.848,68.656
			c-9.751,14.634-24.826,24.749-39.77,34.019c-29.26,18.149-60.758,34.944-95.075,37.755"/>
		<path style="fill:#95C11F;" d="M641.874,583.101c-21.855-4.409-37.448-23.255-50.565-41.283
			c-17.905-24.608-35.092-50.796-41.508-80.545c-5.251-24.346-2.962-49.607-0.649-74.405c4.196-1.335,8.623,0.951,12.308,3.36
			c25.933,16.951,44.172,43.267,59.944,69.933c11.516,19.47,22.189,39.761,27.577,61.73c5.388,21.969,5.118,45.961-4.65,66.364"/>
	</g>
</g>
<g id="Layer_1">
</g>
</svg>
