<?xml version="1.0" ?><svg enable-background="new 0 0 64 64" id="Layer_1" version="1.1" viewBox="0 0 64 64" xml:space="preserve" xmlns="http://www.w3.org/2000/svg" xmlns:xlink="http://www.w3.org/1999/xlink"><g id="Glyph_copy_2"><path d="M61.159,24.822L56.042,30h-6.541C48.49,17.108,37.799,6.927,24.794,6.927C11.122,6.927,0,18.175,0,32   s11.123,25.072,24.794,25.072c13.005,0,23.696-10.18,24.708-23.072h6.541l5.117,5.179l2.846-2.812L59.689,32l4.315-4.368   L61.159,24.822z M24.794,53.073C13.328,53.073,4,43.619,4,32c0-11.62,9.328-21.073,20.794-21.073   c10.8,0,19.696,8.389,20.694,19.073h-4.217c-0.983-8.314-7.991-14.785-16.477-14.785c-9.157,0-16.606,7.53-16.606,16.785   s7.45,16.785,16.606,16.785c8.486,0,15.494-6.471,16.477-14.785h4.217C44.49,44.684,35.593,53.073,24.794,53.073z M32.713,30   c-0.889-3.583-4.097-6.248-7.919-6.248c-4.506,0-8.173,3.7-8.173,8.248s3.667,8.248,8.173,8.248c3.822,0,7.03-2.665,7.919-6.248   h4.517c-0.951,6.101-6.158,10.785-12.436,10.785c-6.951,0-12.606-5.735-12.606-12.785s5.655-12.785,12.606-12.785   c6.279,0,11.485,4.684,12.436,10.785H32.713z"/></g></svg>